<svg xmlns="http://www.w3.org/2000/svg" viewBox="0 0 860 540" width="860" height="540" style="border-radius:12px">
<defs>
  <!-- Fonts via CSS @font-face not supported in GitHub SVG sandbox — use system monospace -->

  <!-- Desktop gradient background -->
  <linearGradient id="deskBg" x1="0%" y1="0%" x2="100%" y2="100%">
    <stop offset="0%"   stop-color="#0a0a14"/>
    <stop offset="50%"  stop-color="#0d1117"/>
    <stop offset="100%" stop-color="#080812"/>
  </linearGradient>

  <!-- Window chrome gradient -->
  <linearGradient id="winChrome" x1="0%" y1="0%" x2="0%" y2="100%">
    <stop offset="0%" stop-color="#1c1f2e"/>
    <stop offset="100%" stop-color="#161824"/>
  </linearGradient>

  <!-- Taskbar gradient -->
  <linearGradient id="taskbarGrad" x1="0%" y1="0%" x2="100%" y2="0%">
    <stop offset="0%"   stop-color="#080c18"/>
    <stop offset="50%"  stop-color="#0e1220"/>
    <stop offset="100%" stop-color="#080c18"/>
  </linearGradient>

  <!-- Skill bar green fill -->
  <linearGradient id="skillGreen" x1="0%" y1="0%" x2="100%" y2="0%">
    <stop offset="0%"   stop-color="#00ff88"/>
    <stop offset="100%" stop-color="#00c46a"/>
  </linearGradient>
  <linearGradient id="skillBlue" x1="0%" y1="0%" x2="100%" y2="0%">
    <stop offset="0%"   stop-color="#00b4d8"/>
    <stop offset="100%" stop-color="#0077b6"/>
  </linearGradient>
  <linearGradient id="skillPurple" x1="0%" y1="0%" x2="100%" y2="0%">
    <stop offset="0%"   stop-color="#7c3aed"/>
    <stop offset="100%" stop-color="#5b21b6"/>
  </linearGradient>
  <linearGradient id="skillOrange" x1="0%" y1="0%" x2="100%" y2="0%">
    <stop offset="0%"   stop-color="#f59e0b"/>
    <stop offset="100%" stop-color="#d97706"/>
  </linearGradient>

  <!-- Neural glow filter -->
  <filter id="glow" x="-30%" y="-30%" width="160%" height="160%">
    <feGaussianBlur stdDeviation="2.5" result="blur"/>
    <feMerge><feMergeNode in="blur"/><feMergeNode in="SourceGraphic"/></feMerge>
  </filter>
  <filter id="glowSoft" x="-50%" y="-50%" width="200%" height="200%">
    <feGaussianBlur stdDeviation="4" result="blur"/>
    <feMerge><feMergeNode in="blur"/><feMergeNode in="SourceGraphic"/></feMerge>
  </filter>
  <filter id="windowShadow" x="-5%" y="-5%" width="115%" height="120%">
    <feDropShadow dx="0" dy="4" stdDeviation="12" flood-color="#000000" flood-opacity="0.7"/>
  </filter>

  <!-- Scanline pattern -->
  <pattern id="scanlines" x="0" y="0" width="1" height="3" patternUnits="userSpaceOnUse">
    <rect width="1" height="1" fill="rgba(255,255,255,0.015)"/>
    <rect y="1" width="1" height="2" fill="transparent"/>
  </pattern>

  <!-- Star/particle pattern -->
  <pattern id="stars" x="0" y="0" width="60" height="60" patternUnits="userSpaceOnUse">
    <circle cx="5"  cy="12" r="0.6" fill="rgba(255,255,255,0.5)"/>
    <circle cx="32" cy="5"  r="0.4" fill="rgba(255,255,255,0.3)"/>
    <circle cx="48" cy="28" r="0.7" fill="rgba(255,255,255,0.4)"/>
    <circle cx="14" cy="44" r="0.5" fill="rgba(255,255,255,0.3)"/>
    <circle cx="55" cy="50" r="0.4" fill="rgba(255,255,255,0.4)"/>
    <circle cx="28" cy="38" r="0.3" fill="rgba(255,255,255,0.2)"/>
  </pattern>

  <!-- Clip paths for windows -->
  <clipPath id="termClip">  <rect x="16"  y="56"  width="370" height="260" rx="0"/> </clipPath>
  <clipPath id="neuralClip"><rect x="400" y="56"  width="444" height="210" rx="0"/> </clipPath>
  <clipPath id="skillClip"> <rect x="400" y="280" width="210" height="200" rx="0"/> </clipPath>
  <clipPath id="aboutClip"> <rect x="622" y="280" width="222" height="200" rx="0"/> </clipPath>
</defs>

<!-- ═══════════════════════════════════════════════════════ -->
<!--  DESKTOP BACKGROUND                                     -->
<!-- ═══════════════════════════════════════════════════════ -->
<rect width="860" height="540" fill="url(#deskBg)"/>
<rect width="860" height="540" fill="url(#stars)" opacity="0.9"/>
<rect width="860" height="540" fill="url(#scanlines)"/>

<!-- Ambient glow orbs in background -->
<ellipse cx="180" cy="270" rx="120" ry="80" fill="#00ff88" opacity="0.025" filter="url(#glowSoft)"/>
<ellipse cx="680" cy="160" rx="100" ry="70" fill="#00b4d8" opacity="0.03"  filter="url(#glowSoft)"/>
<ellipse cx="500" cy="400" rx="90"  ry="60" fill="#7c3aed" opacity="0.025" filter="url(#glowSoft)"/>

<!-- ═══════════════════════════════════════════════════════ -->
<!--  TASKBAR                                               -->
<!-- ═══════════════════════════════════════════════════════ -->
<rect y="0" width="860" height="36" fill="url(#taskbarGrad)"/>
<rect y="35.5" width="860" height="0.5" fill="#00ff88" opacity="0.3"/>

<!-- OS Logo / name left -->
<circle cx="18" cy="18" r="9" fill="none" stroke="#00ff88" stroke-width="1.2" opacity="0.9"/>
<circle cx="18" cy="18" r="4" fill="#00ff88" opacity="0.9">
  <animate attributeName="r" values="4;5.5;4" dur="3s" repeatCount="indefinite"/>
  <animate attributeName="opacity" values="0.9;0.5;0.9" dur="3s" repeatCount="indefinite"/>
</circle>
<text x="34" y="23" font-family="'Courier New',monospace" font-size="10.5" font-weight="bold" fill="#ffffff" letter-spacing="1.5">SandeepOS</text>
<text x="34" y="23" font-family="'Courier New',monospace" font-size="10.5" font-weight="bold" fill="#00ff88" opacity="0.3" letter-spacing="1.5">SandeepOS</text>

<!-- Taskbar items -->
<rect x="130" y="6" width="54" height="22" rx="3" fill="rgba(0,255,136,0.08)" stroke="#00ff88" stroke-width="0.5" opacity="0.7"/>
<text x="157" y="21" text-anchor="middle" font-family="'Courier New',monospace" font-size="8.5" fill="#00ff88">terminal</text>

<rect x="192" y="6" width="52" height="22" rx="3" fill="rgba(0,180,216,0.08)" stroke="#00b4d8" stroke-width="0.5" opacity="0.7"/>
<text x="218" y="21" text-anchor="middle" font-family="'Courier New',monospace" font-size="8.5" fill="#00b4d8">neural</text>

<rect x="252" y="6" width="46" height="22" rx="3" fill="rgba(124,58,237,0.08)" stroke="#7c3aed" stroke-width="0.5" opacity="0.7"/>
<text x="275" y="21" text-anchor="middle" font-family="'Courier New',monospace" font-size="8.5" fill="#7c3aed">skills</text>

<!-- Taskbar right — status indicators -->
<!-- CPU meter (animated bars) -->
<text x="624" y="15" font-family="'Courier New',monospace" font-size="7" fill="#888" letter-spacing="0">CPU</text>
<rect x="642" y="8"  width="4" height="14" rx="1" fill="#00ff88" opacity="0.3"/>
<rect x="648" y="11" width="4" height="11" rx="1" fill="#00ff88" opacity="0.5"><animate attributeName="height" values="11;14;8;13;11" dur="2s" repeatCount="indefinite"/><animate attributeName="y" values="11;8;14;9;11" dur="2s" repeatCount="indefinite"/></rect>
<rect x="654" y="9"  width="4" height="13" rx="1" fill="#00ff88" opacity="0.7"><animate attributeName="height" values="13;7;15;10;13" dur="1.5s" repeatCount="indefinite"/><animate attributeName="y" values="9;15;7;12;9" dur="1.5s" repeatCount="indefinite"/></rect>
<rect x="660" y="12" width="4" height="10" rx="1" fill="#00ff88" opacity="0.5"><animate attributeName="height" values="10;15;6;12;10" dur="2.3s" repeatCount="indefinite"/><animate attributeName="y" values="12;7;16;10;12" dur="2.3s" repeatCount="indefinite"/></rect>
<rect x="666" y="10" width="4" height="12" rx="1" fill="#00ff88" opacity="0.4"><animate attributeName="height" values="12;9;14;8;12" dur="1.8s" repeatCount="indefinite"/><animate attributeName="y" values="10;13;8;14;10" dur="1.8s" repeatCount="indefinite"/></rect>

<!-- Network pulse -->
<text x="678" y="15" font-family="'Courier New',monospace" font-size="7" fill="#888">NET</text>
<circle cx="699" cy="18" r="4" fill="none" stroke="#00b4d8" stroke-width="1" opacity="0.6"/>
<circle cx="699" cy="18" r="2" fill="#00b4d8" opacity="0.8">
  <animate attributeName="r" values="2;4;2" dur="1.5s" repeatCount="indefinite"/>
  <animate attributeName="opacity" values="0.8;0.2;0.8" dur="1.5s" repeatCount="indefinite"/>
</circle>

<!-- Status dot -->
<circle cx="715" cy="18" r="3.5" fill="#00ff88" opacity="0.8">
  <animate attributeName="opacity" values="0.8;0.3;0.8" dur="2s" repeatCount="indefinite"/>
</circle>

<!-- Clock text (static but styled like a clock) -->
<text x="726" y="23" font-family="'Courier New',monospace" font-size="10" fill="#ffffff" opacity="0.85" letter-spacing="1">
  AI:ML:ON
</text>

<!-- Wifi bars -->
<rect x="830" y="22" width="5" height="5"  rx="0.5" fill="#00ff88" opacity="0.4"/>
<rect x="837" y="18" width="5" height="9"  rx="0.5" fill="#00ff88" opacity="0.6"/>
<rect x="844" y="13" width="5" height="14" rx="0.5" fill="#00ff88" opacity="0.9"/>

<!-- ═══════════════════════════════════════════════════════ -->
<!--  WINDOW 1 — TERMINAL  (left, tall)                     -->
<!-- ═══════════════════════════════════════════════════════ -->
<g filter="url(#windowShadow)">
  <!-- Window body -->
  <rect x="16" y="46" width="370" height="274" rx="8" fill="#0d0f18" stroke="#1e2235" stroke-width="1"/>
  <!-- Title bar -->
  <rect x="16" y="46" width="370" height="26" rx="8" fill="url(#winChrome)"/>
  <rect x="16" y="60" width="370" height="12" fill="url(#winChrome)"/>
  <!-- Title bar bottom border -->
  <line x1="16" y1="72" x2="386" y2="72" stroke="#00ff88" stroke-width="0.4" opacity="0.4"/>

  <!-- Traffic lights -->
  <circle cx="32"  cy="59" r="5" fill="#ff5f57"><animate attributeName="opacity" values="1;0.7;1" dur="4s" repeatCount="indefinite"/></circle>
  <circle cx="46"  cy="59" r="5" fill="#febc2e"><animate attributeName="opacity" values="1;0.7;1" dur="4s" begin="0.3s" repeatCount="indefinite"/></circle>
  <circle cx="60"  cy="59" r="5" fill="#28c840"><animate attributeName="opacity" values="1;0.7;1" dur="4s" begin="0.6s" repeatCount="indefinite"/></circle>

  <!-- Window title -->
  <text x="201" y="63" text-anchor="middle" font-family="'Courier New',monospace" font-size="9" fill="#8892b0" letter-spacing="2">terminal — jaya@sandeep-os</text>

  <!-- Terminal content area -->
  <rect x="16" y="72" width="370" height="248" fill="#080a10" rx="0"/>
  <rect x="16" y="306" width="370" height="14" fill="#080a10" rx="0 0 8 8"/>

  <!-- Terminal lines — typewriter via CSS animation on each text -->
  <style>
    .t1{animation:fadein 0.3s ease both;animation-delay:0.2s;opacity:0}
    .t2{animation:fadein 0.3s ease both;animation-delay:0.9s;opacity:0}
    .t3{animation:fadein 0.3s ease both;animation-delay:1.6s;opacity:0}
    .t4{animation:fadein 0.3s ease both;animation-delay:2.3s;opacity:0}
    .t5{animation:fadein 0.3s ease both;animation-delay:3.0s;opacity:0}
    .t6{animation:fadein 0.3s ease both;animation-delay:3.7s;opacity:0}
    .t7{animation:fadein 0.3s ease both;animation-delay:4.4s;opacity:0}
    .t8{animation:fadein 0.3s ease both;animation-delay:5.1s;opacity:0}
    .t9{animation:fadein 0.3s ease both;animation-delay:5.8s;opacity:0}
    .t10{animation:fadein 0.3s ease both;animation-delay:6.5s;opacity:0}
    .t11{animation:fadein 0.3s ease both;animation-delay:7.2s;opacity:0}
    .t12{animation:fadein 0.3s ease both;animation-delay:7.9s;opacity:0}
    .t13{animation:fadein 0.3s ease both;animation-delay:8.6s;opacity:0}
    .cur{animation:blink 1s step-end infinite;animation-delay:8.9s;opacity:0}
    @keyframes fadein{from{opacity:0}to{opacity:1}}
    @keyframes blink{0%,100%{opacity:0}50%{opacity:1}}

    .bar1{animation:grow1 1s ease both;animation-delay:0.5s;width:0}
    .bar2{animation:grow2 1s ease both;animation-delay:0.7s;width:0}
    .bar3{animation:grow3 1s ease both;animation-delay:0.9s;width:0}
    .bar4{animation:grow4 1s ease both;animation-delay:1.1s;width:0}
    .bar5{animation:grow5 1s ease both;animation-delay:1.3s;width:0}
    .bar6{animation:grow6 1s ease both;animation-delay:1.5s;width:0}
    @keyframes grow1{from{width:0}to{width:162px}}
    @keyframes grow2{from{width:0}to{width:150px}}
    @keyframes grow3{from{width:0}to{width:174px}}
    @keyframes grow4{from{width:0}to{width:138px}}
    @keyframes grow5{from{width:0}to{width:168px}}
    @keyframes grow6{from{width:0}to{width:126px}}

    .n1{animation:npulse 2.2s ease-in-out infinite}
    .n2{animation:npulse 1.8s ease-in-out infinite;animation-delay:0.4s}
    .n3{animation:npulse 2.8s ease-in-out infinite;animation-delay:0.8s}
    .n4{animation:npulse 2s ease-in-out infinite;animation-delay:1.2s}
    .n5{animation:npulse 2.5s ease-in-out infinite;animation-delay:0.2s}
    .n6{animation:npulse 1.6s ease-in-out infinite;animation-delay:0.6s}
    .n7{animation:npulse 2.3s ease-in-out infinite;animation-delay:1s}
    .n8{animation:npulse 1.9s ease-in-out infinite;animation-delay:0.3s}
    .n9{animation:npulse 2.1s ease-in-out infinite;animation-delay:0.7s}
    @keyframes npulse{0%,100%{opacity:0.25;r:3}50%{opacity:1;r:5}}

    .e1{animation:epulse 3s ease-in-out infinite}
    .e2{animation:epulse 2.5s ease-in-out infinite;animation-delay:0.5s}
    .e3{animation:epulse 2s ease-in-out infinite;animation-delay:1s}
    .e4{animation:epulse 3.5s ease-in-out infinite;animation-delay:0.3s}
    .e5{animation:epulse 2.8s ease-in-out infinite;animation-delay:0.8s}
    @keyframes epulse{0%,100%{opacity:0.1;stroke-width:0.5}50%{opacity:0.6;stroke-width:1.5}}

    .sig1{animation:signal 3s linear infinite}
    .sig2{animation:signal 4s linear infinite;animation-delay:1s}
    .sig3{animation:signal 5s linear infinite;animation-delay:0.5s}
    @keyframes signal{0%{opacity:0;offset-distance:0%}10%{opacity:1}90%{opacity:1}100%{opacity:0;offset-distance:100%}}

    .pulse-ring{animation:pring 2s ease-out infinite}
    @keyframes pring{0%{r:4;opacity:0.8;stroke-width:1.5}100%{r:14;opacity:0;stroke-width:0.3}}

    .about-line{animation:fadein 0.4s ease both;opacity:0}
    .al1{animation-delay:0.3s}.al2{animation-delay:0.8s}.al3{animation-delay:1.3s}
    .al4{animation-delay:1.8s}.al5{animation-delay:2.3s}.al6{animation-delay:2.8s}
    .al7{animation-delay:3.3s}.al8{animation-delay:3.8s}
  </style>

  <!-- Prompt lines -->
  <g clip-path="url(#termClip)" font-family="'Courier New',monospace" font-size="9.5">
    <text class="t1"  x="26" y="92"  fill="#00ff88">jaya@sandeep-os</text>
    <text class="t1"  x="142" y="92" fill="#8892b0">:~$</text>
    <text class="t1"  x="163" y="92" fill="#cdd6f4"> cat profile.json</text>

    <text class="t2"  x="26" y="107" fill="#4a5568">{</text>
    <text class="t3"  x="36" y="120" fill="#7c3aed">"name"</text>
    <text class="t3"  x="88" y="120" fill="#4a5568">:</text>
    <text class="t3"  x="96" y="120" fill="#00ff88">"Jaya Sandeep Nadipalli"</text>
    <text class="t3"  x="306" y="120" fill="#4a5568">,</text>
    <text class="t4"  x="36" y="133" fill="#7c3aed">"role"</text>
    <text class="t4"  x="88" y="133" fill="#4a5568">:</text>
    <text class="t4"  x="96" y="133" fill="#00b4d8">"AI &amp; ML Engineer 🧠"</text>
    <text class="t4"  x="268" y="133" fill="#4a5568">,</text>
    <text class="t5"  x="36" y="146" fill="#7c3aed">"location"</text>
    <text class="t5"  x="118" y="146" fill="#4a5568">:</text>
    <text class="t5"  x="126" y="146" fill="#f59e0b">"India 🇮🇳"</text>
    <text class="t5"  x="226" y="146" fill="#4a5568">,</text>
    <text class="t6"  x="36" y="159" fill="#7c3aed">"building"</text>
    <text class="t6"  x="118" y="159" fill="#4a5568">:</text>
    <text class="t6"  x="126" y="159" fill="#00ff88">["LLMs","Vision","Agents"]</text>
    <text class="t6"  x="321" y="159" fill="#4a5568">,</text>
    <text class="t7"  x="36" y="172" fill="#7c3aed">"learning"</text>
    <text class="t7"  x="118" y="172" fill="#4a5568">:</text>
    <text class="t7"  x="126" y="172" fill="#00b4d8">["RAG","AgenticAI","MLOps"]</text>
    <text class="t7"  x="336" y="172" fill="#4a5568">,</text>
    <text class="t8"  x="36" y="185" fill="#7c3aed">"email"</text>
    <text class="t8"  x="88" y="185" fill="#4a5568">:</text>
    <text class="t8"  x="96" y="185" fill="#f59e0b">"nadipalli.sandeep8@gmail.com"</text>
    <text class="t9"  x="26" y="198" fill="#4a5568">}</text>

    <text class="t10" x="26"  y="215" fill="#00ff88">jaya@sandeep-os</text>
    <text class="t10" x="142" y="215" fill="#8892b0">:~$</text>
    <text class="t10" x="163" y="215" fill="#cdd6f4"> run mission.sh</text>

    <text class="t11" x="26" y="230" fill="#4a5568">▶</text>
    <text class="t11" x="38" y="230" fill="#28c840"> Loading neural engine...</text>
    <text class="t12" x="26" y="243" fill="#4a5568">▶</text>
    <text class="t12" x="38" y="243" fill="#28c840"> Build AI that matters.</text>
    <text class="t13" x="26" y="258" fill="#4a5568">▶</text>
    <text class="t13" x="38" y="258" fill="#28c840"> Ship fast. Break barriers. 🚀</text>

    <text class="t13" x="26" y="278" fill="#00ff88">jaya@sandeep-os</text>
    <text class="t13" x="142" y="278" fill="#8892b0">:~$</text>
    <text class="t13" x="163" y="278" fill="#cdd6f4"> _</text>
    <rect class="cur" x="163" y="268" width="6" height="11" fill="#00ff88"/>
  </g>
</g>

<!-- ═══════════════════════════════════════════════════════ -->
<!--  WINDOW 2 — NEURAL NETWORK VISUALIZER (top right)      -->
<!-- ═══════════════════════════════════════════════════════ -->
<g filter="url(#windowShadow)">
  <rect x="400" y="46" width="444" height="224" rx="8" fill="#0b0d1a" stroke="#1e2235" stroke-width="1"/>
  <rect x="400" y="46" width="444" height="26" rx="8" fill="url(#winChrome)"/>
  <rect x="400" y="60" width="444" height="12" fill="url(#winChrome)"/>
  <line x1="400" y1="72" x2="844" y2="72" stroke="#00b4d8" stroke-width="0.4" opacity="0.4"/>

  <circle cx="416" cy="59" r="5" fill="#ff5f57"/>
  <circle cx="430" cy="59" r="5" fill="#febc2e"/>
  <circle cx="444" cy="59" r="5" fill="#28c840"/>
  <text x="622" y="63" text-anchor="middle" font-family="'Courier New',monospace" font-size="9" fill="#8892b0" letter-spacing="2">neural-network-visualizer</text>

  <rect x="400" y="72" width="444" height="198" fill="#07080f"/>
  <rect x="400" y="256" width="444" height="14" fill="#07080f" rx="0 0 8 8"/>

  <!-- Neural net layer labels -->
  <g font-family="'Courier New',monospace" font-size="7.5" fill="#4a5568">
    <text x="432" y="86" text-anchor="middle">INPUT</text>
    <text x="530" y="86" text-anchor="middle">HIDDEN-1</text>
    <text x="622" y="86" text-anchor="middle">HIDDEN-2</text>
    <text x="720" y="86" text-anchor="middle">HIDDEN-3</text>
    <text x="812" y="86" text-anchor="middle">OUTPUT</text>
  </g>

  <!-- Layer dividers -->
  <g stroke="#1e2235" stroke-width="0.5" stroke-dasharray="2,4">
    <line x1="481" y1="78" x2="481" y2="258"/>
    <line x1="576" y1="78" x2="576" y2="258"/>
    <line x1="668" y1="78" x2="668" y2="258"/>
    <line x1="762" y1="78" x2="762" y2="258"/>
  </g>

  <!-- ─── Edges (drawn behind nodes) ─── -->
  <!-- INPUT→H1 -->
  <g class="e1" stroke="#00ff88" fill="none">
    <line x1="432" y1="108" x2="530" y2="104"/>
    <line x1="432" y1="108" x2="530" y2="136"/>
    <line x1="432" y1="108" x2="530" y2="168"/>
    <line x1="432" y1="140" x2="530" y2="104"/>
    <line x1="432" y1="140" x2="530" y2="136"/>
    <line x1="432" y1="140" x2="530" y2="168"/>
    <line x1="432" y1="172" x2="530" y2="136"/>
    <line x1="432" y1="172" x2="530" y2="168"/>
    <line x1="432" y1="172" x2="530" y2="200"/>
    <line x1="432" y1="204" x2="530" y2="168"/>
    <line x1="432" y1="204" x2="530" y2="200"/>
  </g>
  <!-- H1→H2 -->
  <g class="e2" stroke="#00b4d8" fill="none">
    <line x1="530" y1="104" x2="622" y2="116"/>
    <line x1="530" y1="104" x2="622" y2="148"/>
    <line x1="530" y1="136" x2="622" y2="116"/>
    <line x1="530" y1="136" x2="622" y2="148"/>
    <line x1="530" y1="136" x2="622" y2="180"/>
    <line x1="530" y1="168" x2="622" y2="148"/>
    <line x1="530" y1="168" x2="622" y2="180"/>
    <line x1="530" y1="168" x2="622" y2="212"/>
    <line x1="530" y1="200" x2="622" y2="180"/>
    <line x1="530" y1="200" x2="622" y2="212"/>
  </g>
  <!-- H2→H3 -->
  <g class="e3" stroke="#7c3aed" fill="none">
    <line x1="622" y1="116" x2="720" y2="124"/>
    <line x1="622" y1="116" x2="720" y2="156"/>
    <line x1="622" y1="148" x2="720" y2="124"/>
    <line x1="622" y1="148" x2="720" y2="156"/>
    <line x1="622" y1="148" x2="720" y2="188"/>
    <line x1="622" y1="180" x2="720" y2="156"/>
    <line x1="622" y1="180" x2="720" y2="188"/>
    <line x1="622" y1="212" x2="720" y2="188"/>
    <line x1="622" y1="212" x2="720" y2="220"/>
  </g>
  <!-- H3→OUTPUT -->
  <g class="e4" stroke="#f59e0b" fill="none">
    <line x1="720" y1="124" x2="812" y2="136"/>
    <line x1="720" y1="124" x2="812" y2="192"/>
    <line x1="720" y1="156" x2="812" y2="136"/>
    <line x1="720" y1="156" x2="812" y2="192"/>
    <line x1="720" y1="188" x2="812" y2="136"/>
    <line x1="720" y1="188" x2="812" y2="192"/>
    <line x1="720" y1="220" x2="812" y2="192"/>
  </g>

  <!-- ─── Nodes ─── -->
  <!-- INPUT nodes (4) -->
  <g filter="url(#glow)">
    <circle class="n1" cx="432" cy="108" r="4" fill="#00ff88"/>
    <circle class="n2" cx="432" cy="140" r="4" fill="#00ff88"/>
    <circle class="n3" cx="432" cy="172" r="4" fill="#00ff88"/>
    <circle class="n4" cx="432" cy="204" r="4" fill="#00ff88"/>
    <!-- Pulse rings on select nodes -->
    <circle class="pulse-ring" cx="432" cy="140" r="4" fill="none" stroke="#00ff88" stroke-width="1.5"/>

    <!-- HIDDEN-1 nodes (4) -->
    <circle class="n5" cx="530" cy="104" r="4" fill="#00b4d8"/>
    <circle class="n6" cx="530" cy="136" r="4" fill="#00b4d8"/>
    <circle class="n7" cx="530" cy="168" r="4" fill="#00b4d8"/>
    <circle class="n8" cx="530" cy="200" r="4" fill="#00b4d8"/>
    <circle class="pulse-ring" cx="530" cy="168" r="4" fill="none" stroke="#00b4d8" stroke-width="1.5"/>

    <!-- HIDDEN-2 nodes (4) -->
    <circle class="n1" cx="622" cy="116" r="4" fill="#7c3aed"/>
    <circle class="n3" cx="622" cy="148" r="4" fill="#7c3aed"/>
    <circle class="n5" cx="622" cy="180" r="4" fill="#7c3aed"/>
    <circle class="n7" cx="622" cy="212" r="4" fill="#7c3aed"/>
    <circle class="pulse-ring" cx="622" cy="148" r="4" fill="none" stroke="#7c3aed" stroke-width="1.5"/>

    <!-- HIDDEN-3 nodes (4) -->
    <circle class="n2" cx="720" cy="124" r="4" fill="#f59e0b"/>
    <circle class="n4" cx="720" cy="156" r="4" fill="#f59e0b"/>
    <circle class="n6" cx="720" cy="188" r="4" fill="#f59e0b"/>
    <circle class="n8" cx="720" cy="220" r="4" fill="#f59e0b"/>
    <circle class="pulse-ring" cx="720" cy="156" r="4" fill="none" stroke="#f59e0b" stroke-width="1.5"/>

    <!-- OUTPUT nodes (2) -->
    <circle class="n1" cx="812" cy="136" r="5.5" fill="#ff5f57"/>
    <circle class="n5" cx="812" cy="192" r="5.5" fill="#28c840"/>
    <circle class="pulse-ring" cx="812" cy="136" r="5.5" fill="none" stroke="#ff5f57" stroke-width="1.5"/>
    <circle class="pulse-ring" cx="812" cy="192" r="5.5" fill="none" stroke="#28c840" stroke-width="1.5"/>
  </g>

  <!-- Signal travel along paths using animateMotion -->
  <circle r="2.5" fill="#ffffff" opacity="0.9" filter="url(#glow)">
    <animateMotion dur="2.5s" repeatCount="indefinite" begin="0s"
      path="M432,140 L530,136 L622,148 L720,156 L812,136"/>
    <animate attributeName="opacity" values="0;1;1;1;0" dur="2.5s" repeatCount="indefinite"/>
  </circle>
  <circle r="2" fill="#00ff88" opacity="0.9" filter="url(#glow)">
    <animateMotion dur="3s" repeatCount="indefinite" begin="0.8s"
      path="M432,172 L530,168 L622,180 L720,188 L812,192"/>
    <animate attributeName="opacity" values="0;1;1;1;0" dur="3s" repeatCount="indefinite"/>
  </circle>
  <circle r="2" fill="#00b4d8" opacity="0.9" filter="url(#glow)">
    <animateMotion dur="2s" repeatCount="indefinite" begin="1.5s"
      path="M432,108 L530,104 L622,116 L720,124 L812,136"/>
    <animate attributeName="opacity" values="0;1;1;1;0" dur="2s" repeatCount="indefinite"/>
  </circle>
  <circle r="2" fill="#7c3aed" opacity="0.9" filter="url(#glow)">
    <animateMotion dur="3.5s" repeatCount="indefinite" begin="0.3s"
      path="M432,204 L530,200 L622,212 L720,220 L812,192"/>
    <animate attributeName="opacity" values="0;1;1;1;0" dur="3.5s" repeatCount="indefinite"/>
  </circle>

  <!-- Output labels -->
  <text x="824" y="140" font-family="'Courier New',monospace" font-size="7" fill="#ff5f57">LLM</text>
  <text x="824" y="196" font-family="'Courier New',monospace" font-size="7" fill="#28c840">Vision</text>
</g>

<!-- ═══════════════════════════════════════════════════════ -->
<!--  WINDOW 3 — SKILLS.EXE (bottom-right left panel)       -->
<!-- ═══════════════════════════════════════════════════════ -->
<g filter="url(#windowShadow)">
  <rect x="400" y="282" width="214" height="202" rx="8" fill="#0a0c18" stroke="#1e2235" stroke-width="1"/>
  <rect x="400" y="282" width="214" height="26" rx="8" fill="url(#winChrome)"/>
  <rect x="400" y="296" width="214" height="12" fill="url(#winChrome)"/>
  <line x1="400" y1="308" x2="614" y2="308" stroke="#7c3aed" stroke-width="0.4" opacity="0.5"/>

  <circle cx="416" cy="295" r="5" fill="#ff5f57"/>
  <circle cx="430" cy="295" r="5" fill="#febc2e"/>
  <circle cx="444" cy="295" r="5" fill="#28c840"/>
  <text x="507" y="299" text-anchor="middle" font-family="'Courier New',monospace" font-size="9" fill="#8892b0" letter-spacing="1.5">skills.exe</text>

  <rect x="400" y="308" width="214" height="176" fill="#080910"/>
  <rect x="400" y="470" width="214" height="14" fill="#080910" rx="0 0 8 8"/>

  <!-- Skills with animated bars -->
  <g font-family="'Courier New',monospace" fill="#cdd6f4">
    <!-- Python -->
    <text x="412" y="328" font-size="8.5" fill="#00ff88">Python</text>
    <text x="596" y="328" font-size="7.5" fill="#4a5568" text-anchor="end">95%</text>
    <rect x="412" y="332" width="180" height="4" rx="2" fill="#1e2235"/>
    <rect x="412" y="332" height="4" rx="2" fill="url(#skillGreen)" class="bar1"/>

    <!-- PyTorch -->
    <text x="412" y="350" font-size="8.5" fill="#00b4d8">PyTorch</text>
    <text x="596" y="350" font-size="7.5" fill="#4a5568" text-anchor="end">88%</text>
    <rect x="412" y="354" width="180" height="4" rx="2" fill="#1e2235"/>
    <rect x="412" y="354" height="4" rx="2" fill="url(#skillBlue)" class="bar2"/>

    <!-- TensorFlow -->
    <text x="412" y="372" font-size="8.5" fill="#f59e0b">TensorFlow</text>
    <text x="596" y="372" font-size="7.5" fill="#4a5568" text-anchor="end">85%</text>
    <rect x="412" y="376" width="180" height="4" rx="2" fill="#1e2235"/>
    <rect x="412" y="376" height="4" rx="2" fill="url(#skillOrange)" class="bar3"/>

    <!-- NLP/LLMs -->
    <text x="412" y="394" font-size="8.5" fill="#7c3aed">LLM/NLP</text>
    <text x="596" y="394" font-size="7.5" fill="#4a5568" text-anchor="end">82%</text>
    <rect x="412" y="398" width="180" height="4" rx="2" fill="#1e2235"/>
    <rect x="412" y="398" height="4" rx="2" fill="url(#skillPurple)" class="bar4"/>

    <!-- C++ -->
    <text x="412" y="416" font-size="8.5" fill="#00ff88">C++</text>
    <text x="596" y="416" font-size="7.5" fill="#4a5568" text-anchor="end">78%</text>
    <rect x="412" y="420" width="180" height="4" rx="2" fill="#1e2235"/>
    <rect x="412" y="420" height="4" rx="2" fill="url(#skillGreen)" class="bar5"/>

    <!-- OpenCV -->
    <text x="412" y="438" font-size="8.5" fill="#00b4d8">OpenCV</text>
    <text x="596" y="438" font-size="7.5" fill="#4a5568" text-anchor="end">75%</text>
    <rect x="412" y="442" width="180" height="4" rx="2" fill="#1e2235"/>
    <rect x="412" y="442" height="4" rx="2" fill="url(#skillBlue)" class="bar6"/>

    <!-- Docker/K8s -->
    <text x="412" y="460" font-size="8.5" fill="#4a5568">Docker / K8s / AWS / Azure</text>
  </g>
</g>

<!-- ═══════════════════════════════════════════════════════ -->
<!--  WINDOW 4 — ABOUT CARD (bottom-right right panel)      -->
<!-- ═══════════════════════════════════════════════════════ -->
<g filter="url(#windowShadow)">
  <rect x="626" y="282" width="218" height="202" rx="8" fill="#0a0c18" stroke="#1e2235" stroke-width="1"/>
  <rect x="626" y="282" width="218" height="26" rx="8" fill="url(#winChrome)"/>
  <rect x="626" y="296" width="218" height="12" fill="url(#winChrome)"/>
  <line x1="626" y1="308" x2="844" y2="308" stroke="#f59e0b" stroke-width="0.4" opacity="0.5"/>

  <circle cx="642" cy="295" r="5" fill="#ff5f57"/>
  <circle cx="656" cy="295" r="5" fill="#febc2e"/>
  <circle cx="670" cy="295" r="5" fill="#28c840"/>
  <text x="735" y="299" text-anchor="middle" font-family="'Courier New',monospace" font-size="9" fill="#8892b0" letter-spacing="1.5">about.md</text>

  <rect x="626" y="308" width="218" height="176" fill="#080910"/>
  <rect x="626" y="470" width="218" height="14" fill="#080910" rx="0 0 8 8"/>

  <!-- Avatar area — animated hex outline -->
  <g transform="translate(735,345)">
    <!-- Outer hex rings (animated rotation) -->
    <polygon points="0,-32 27.7,-16 27.7,16 0,32 -27.7,16 -27.7,-16"
      fill="none" stroke="#00ff88" stroke-width="0.8" opacity="0.3">
      <animateTransform attributeName="transform" type="rotate" from="0" to="360" dur="12s" repeatCount="indefinite"/>
    </polygon>
    <polygon points="0,-24 20.8,-12 20.8,12 0,24 -20.8,12 -20.8,-12"
      fill="none" stroke="#00b4d8" stroke-width="1" opacity="0.4">
      <animateTransform attributeName="transform" type="rotate" from="360" to="0" dur="8s" repeatCount="indefinite"/>
    </polygon>
    <!-- Inner avatar circle -->
    <circle r="16" fill="#0d1117" stroke="#7c3aed" stroke-width="1.5"/>
    <!-- JS initials -->
    <text y="5" text-anchor="middle" font-family="'Courier New',monospace" font-size="13" font-weight="bold" fill="#00ff88">JS</text>
  </g>

  <!-- Info lines -->
  <g class="about-line al1" font-family="'Courier New',monospace" font-size="8.5">
    <text x="638" y="393" fill="#4a5568">▸</text>
    <text x="650" y="393" fill="#00ff88">Jaya Sandeep</text>
  </g>
  <g class="about-line al2" font-family="'Courier New',monospace" font-size="8">
    <text x="638" y="407" fill="#4a5568">▸</text>
    <text x="650" y="407" fill="#8892b0">AI &amp; ML Engineer</text>
  </g>
  <g class="about-line al3" font-family="'Courier New',monospace" font-size="8">
    <text x="638" y="420" fill="#4a5568">▸</text>
    <text x="650" y="420" fill="#8892b0">India 🇮🇳</text>
  </g>
  <g class="about-line al4" font-family="'Courier New',monospace" font-size="7.5">
    <text x="638" y="433" fill="#4a5568">▸</text>
    <text x="650" y="433" fill="#f59e0b">LLMs · Vision · Agents</text>
  </g>
  <g class="about-line al5" font-family="'Courier New',monospace" font-size="7.5">
    <text x="638" y="445" fill="#4a5568">▸</text>
    <text x="650" y="445" fill="#7c3aed">PyTorch · TF · OpenCV</text>
  </g>

  <!-- Social links row -->
  <g class="about-line al6">
    <rect x="638" y="453" width="38" height="12" rx="2" fill="rgba(0,119,181,0.15)" stroke="#0077B5" stroke-width="0.6"/>
    <text x="657" y="462" text-anchor="middle" font-family="'Courier New',monospace" font-size="7" fill="#0077B5">LinkedIn</text>

    <rect x="681" y="453" width="34" height="12" rx="2" fill="rgba(0,180,216,0.1)" stroke="#20BEFF" stroke-width="0.6"/>
    <text x="698" y="462" text-anchor="middle" font-family="'Courier New',monospace" font-size="7" fill="#20BEFF">Kaggle</text>

    <rect x="720" y="453" width="40" height="12" rx="2" fill="rgba(255,166,0,0.1)" stroke="#FFA116" stroke-width="0.6"/>
    <text x="740" y="462" text-anchor="middle" font-family="'Courier New',monospace" font-size="7" fill="#FFA116">LeetCode</text>

    <rect x="765" y="453" width="38" height="12" rx="2" fill="rgba(18,16,14,0.3)" stroke="#888" stroke-width="0.6"/>
    <text x="784" y="462" text-anchor="middle" font-family="'Courier New',monospace" font-size="7" fill="#888">Medium</text>
  </g>

  <!-- Fun fact -->
  <g class="about-line al7">
    <text x="638" y="479" font-family="'Courier New',monospace" font-size="7" fill="#4a5568">⚡</text>
    <text x="650" y="479" font-family="'Courier New',monospace" font-size="7" fill="#4a5568">Never funny... but always funny 😂</text>
  </g>
</g>

<!-- ═══════════════════════════════════════════════════════ -->
<!--  DOCK (macOS-style at bottom)                          -->
<!-- ═══════════════════════════════════════════════════════ -->
<rect x="260" y="494" width="340" height="38" rx="10" fill="rgba(14,16,28,0.85)" stroke="rgba(255,255,255,0.06)" stroke-width="1"/>
<!-- Dock icons -->
<g font-family="'Courier New',monospace" font-size="7" text-anchor="middle">
  <!-- Terminal -->
  <rect x="272" y="500" width="26" height="26" rx="5" fill="#0a0c18" stroke="#00ff88" stroke-width="0.8"/>
  <text x="285" y="517" fill="#00ff88" font-size="11">⌨</text>
  <circle cx="285" cy="530" r="1.5" fill="#00ff88" opacity="0.8"/>

  <!-- AI Brain -->
  <rect x="304" y="500" width="26" height="26" rx="5" fill="#0a0c18" stroke="#00b4d8" stroke-width="0.8"/>
  <text x="317" y="517" fill="#00b4d8" font-size="11">🧠</text>

  <!-- Python -->
  <rect x="336" y="500" width="26" height="26" rx="5" fill="#0a0c18" stroke="#f59e0b" stroke-width="0.8"/>
  <text x="349" y="517" fill="#f59e0b" font-size="11">🐍</text>

  <!-- Git -->
  <rect x="368" y="500" width="26" height="26" rx="5" fill="#0a0c18" stroke="#ff5f57" stroke-width="0.8"/>
  <text x="381" y="517" fill="#ff5f57" font-size="10">⌥G</text>

  <!-- Docker -->
  <rect x="400" y="500" width="26" height="26" rx="5" fill="#0a0c18" stroke="#2496ED" stroke-width="0.8"/>
  <text x="413" y="517" fill="#2496ED" font-size="11">🐳</text>

  <!-- Research -->
  <rect x="432" y="500" width="26" height="26" rx="5" fill="#0a0c18" stroke="#7c3aed" stroke-width="0.8"/>
  <text x="445" y="517" fill="#7c3aed" font-size="11">🔬</text>

  <!-- Cloud -->
  <rect x="464" y="500" width="26" height="26" rx="5" fill="#0a0c18" stroke="#00ff88" stroke-width="0.8"/>
  <text x="477" y="517" fill="#00ff88" font-size="11">☁</text>

  <!-- Separator -->
  <line x1="497" y1="502" x2="497" y2="526" stroke="rgba(255,255,255,0.1)" stroke-width="0.8"/>

  <!-- Resume -->
  <rect x="503" y="500" width="26" height="26" rx="5" fill="rgba(0,255,136,0.08)" stroke="#00ff88" stroke-width="1"/>
  <text x="516" y="514" fill="#00ff88" font-size="7">VIEW</text>
  <text x="516" y="523" fill="#00ff88" font-size="7">CV</text>
  <circle cx="516" cy="530" r="1.5" fill="#00ff88" opacity="0.8"/>
</g>

<!-- ═══════════════════════════════════════════════════════ -->
<!--  FLOATING STATUS BAR (bottom of terminal window)       -->
<!-- ═══════════════════════════════════════════════════════ -->
<rect x="16" y="308" width="370" height="10" fill="#050608"/>
<g font-family="'Courier New',monospace" font-size="6.5">
  <text x="22"  y="316" fill="#00ff88">● CONNECTED</text>
  <text x="100" y="316" fill="#4a5568">branch: main</text>
  <text x="180" y="316" fill="#4a5568">python 3.12.0</text>
  <text x="272" y="316" fill="#4a5568">torch 2.2.0</text>
  <!-- Animated status dots -->
  <circle cx="357" cy="313" r="2" fill="#00ff88">
    <animate attributeName="opacity" values="1;0.2;1" dur="1.2s" repeatCount="indefinite"/>
  </circle>
  <circle cx="363" cy="313" r="2" fill="#00b4d8">
    <animate attributeName="opacity" values="0.2;1;0.2" dur="1.2s" repeatCount="indefinite"/>
  </circle>
  <circle cx="369" cy="313" r="2" fill="#7c3aed">
    <animate attributeName="opacity" values="1;0.2;1" dur="1.8s" repeatCount="indefinite"/>
  </circle>
  <circle cx="375" cy="313" r="2" fill="#f59e0b">
    <animate attributeName="opacity" values="0.2;1;0.2" dur="1.5s" repeatCount="indefinite"/>
  </circle>
</g>

<!-- ═══════════════════════════════════════════════════════ -->
<!--  TOP SCANLINES OVER EVERYTHING                         -->
<!-- ═══════════════════════════════════════════════════════ -->
<rect width="860" height="540" fill="url(#scanlines)" opacity="0.5" pointer-events="none"/>
</svg>
